<svg width="144" height="106" viewBox="0 0 144 106" fill="none" xmlns="http://www.w3.org/2000/svg">
<path d="M6.85252 63.4826V48.9598H25.0554V48.1103H6.85252V34.8613H26.2062V34.012H6V64.3319H26.3766V63.4826H6.85278H6.85252ZM42.7893 42.5049L35.244 52.3993L27.8688 42.5051H26.7604L34.7322 53.0364L25.9929 64.3316H27.016L35.2434 53.6729L43.5136 64.3316H44.5792L35.7976 53.0359L43.8119 42.5046H42.789L42.7893 42.5049ZM47.1373 71.8057V58.2172H47.2225C47.7342 60.1989 48.7431 61.7913 50.2493 62.9945C51.7556 64.1975 53.6738 64.7993 56.0041 64.7993C57.5104 64.7993 58.8462 64.495 60.0114 63.8863C61.1766 63.2777 62.1499 62.4496 62.9315 61.4021C63.7129 60.3546 64.3098 59.1373 64.722 57.75C65.134 56.363 65.3402 54.9049 65.3402 53.3764C65.3402 51.7343 65.1268 50.2196 64.7005 48.8326C64.2743 47.4453 63.6561 46.2421 62.8463 45.2231C62.0363 44.2038 61.0558 43.4109 59.9047 42.8451C58.7539 42.2788 57.4536 41.9956 56.0041 41.9956C54.8958 41.9956 53.8657 42.1585 52.9136 42.484C51.9616 42.8097 51.1162 43.2695 50.3773 43.8641C49.634 44.4633 48.9871 45.1721 48.4588 45.966C47.919 46.773 47.5068 47.6576 47.2225 48.6203H47.1373V42.5049H46.2848V71.8057H47.1373V71.8057ZM56.0041 63.9921C53.333 63.9921 51.1871 63.0792 49.5672 61.2533C47.9474 59.4274 47.1373 56.8014 47.1373 53.3759C47.1373 51.9604 47.3364 50.6157 47.7342 49.3418C48.1321 48.068 48.7075 46.9496 49.4605 45.9872C50.2138 45.0245 51.1446 44.2602 52.2527 43.6941C53.3611 43.1278 54.6117 42.8446 56.0041 42.8446C57.4252 42.8446 58.6687 43.1278 59.7343 43.6941C60.8 44.2602 61.6811 45.0317 62.3773 46.0083C63.0735 46.985 63.5993 48.1034 63.9547 49.363C64.3098 50.6228 64.4874 51.9604 64.4874 53.3759C64.4874 54.65 64.3242 55.917 63.9972 57.1766C63.6704 58.4364 63.1659 59.5688 62.4838 60.574C61.8019 61.5787 60.9281 62.3997 59.8622 63.0369C58.7963 63.6738 57.5104 63.9921 56.0041 63.9921V63.9921ZM70.0293 64.3319V51.9746C70.0293 50.7857 70.1997 49.6247 70.541 48.4926C70.8818 47.3602 71.4076 46.3621 72.1182 45.4989C72.8287 44.6353 73.7308 43.9559 74.8251 43.4604C75.9192 42.9649 77.2195 42.7597 78.7257 42.8446V41.9954C77.4183 41.9673 76.2746 42.1085 75.2941 42.42C74.3134 42.7315 73.4681 43.1561 72.7576 43.6941C72.047 44.2319 71.4788 44.8617 71.0525 45.5837C70.6266 46.3046 70.3105 47.0845 70.1145 47.898H70.0293V42.5049H69.1768V64.3321H70.0293V64.3319ZM79.7914 53.5882H98.1219C98.179 52.0878 98.0298 50.6442 97.6744 49.2569C97.3193 47.8697 96.7508 46.6381 95.9694 45.5626C95.1877 44.4868 94.1789 43.6232 92.9426 42.9721C91.7062 42.3209 90.2356 41.9954 88.5305 41.9954C87.3083 41.9954 86.1147 42.2503 84.9495 42.76C83.7843 43.2695 82.7611 44.0124 81.8802 44.9891C80.9993 45.9658 80.2888 47.1619 79.7489 48.5777C79.209 49.993 78.9389 51.6066 78.9389 53.4185C78.9389 55.0321 79.1236 56.5397 79.493 57.9409C79.8625 59.3422 80.4308 60.5598 81.1981 61.593C81.9657 62.6263 82.9533 63.426 84.1609 63.9921C85.3686 64.5584 86.8252 64.8273 88.5305 64.799C91.0313 64.799 93.1344 64.0981 94.8395 62.6971C96.5448 61.2956 97.5536 59.3211 97.8663 56.7731H97.0138C96.6443 59.1796 95.6992 60.9844 94.1789 62.1874C92.6583 63.3906 90.7473 63.9921 88.4451 63.9921C86.882 63.9921 85.5605 63.7232 84.4805 63.1854C83.4008 62.6477 82.5196 61.9113 81.8375 60.9772C81.1556 60.0429 80.6511 58.9459 80.3243 57.6861C79.9973 56.4265 79.8198 55.0604 79.7914 53.5882ZM97.2694 52.739H79.7916C79.8766 51.2103 80.1608 49.8373 80.6439 48.62C81.1272 47.4025 81.7595 46.3621 82.5411 45.4989C83.3225 44.6353 84.2321 43.9773 85.2693 43.5241C86.3066 43.0712 87.4221 42.8446 88.6157 42.8446C90.0368 42.8446 91.2869 43.1066 92.3671 43.6304C93.4469 44.1541 94.3493 44.8691 95.0741 45.7749C95.7987 46.6807 96.3457 47.7354 96.7152 48.9384C97.0847 50.1416 97.2694 51.4086 97.2694 52.739ZM115.813 48.9598H116.666C116.666 46.525 115.955 44.7556 114.535 43.6515C113.113 42.5474 111.181 41.9954 108.737 41.9954C107.373 41.9954 106.222 42.1654 105.284 42.5051C104.346 42.8446 103.579 43.2835 102.982 43.8213C102.385 44.3591 101.959 44.9537 101.703 45.6049C101.447 46.2561 101.319 46.879 101.319 47.4733C101.319 48.6623 101.532 49.6107 101.959 50.3185C102.385 51.0263 103.053 51.5783 103.962 51.9746C104.587 52.2575 105.298 52.5124 106.094 52.7393C106.889 52.9656 107.813 53.2062 108.865 53.4608C109.802 53.6876 110.726 53.914 111.636 54.1403C112.545 54.3669 113.348 54.6712 114.044 55.0532C114.74 55.4355 115.309 55.9239 115.749 56.5185C116.19 57.1129 116.41 57.8915 116.41 58.8539C116.41 59.7883 116.19 60.5809 115.749 61.2318C115.313 61.8797 114.738 62.4235 114.066 62.8245C113.383 63.2349 112.623 63.5321 111.785 63.7161C110.946 63.9001 110.129 63.9921 109.334 63.9921C106.747 63.9921 104.765 63.4189 103.387 62.2725C102.008 61.1258 101.319 59.3211 101.319 56.858H100.467C100.467 59.6042 101.213 61.6142 102.705 62.8883C104.197 64.1621 106.406 64.799 109.334 64.799C110.271 64.799 111.216 64.6928 112.169 64.4804C113.12 64.2681 113.973 63.9215 114.726 63.4401C115.473 62.9654 116.1 62.3262 116.559 61.5718C117.028 60.8072 117.263 59.8731 117.263 58.769C117.263 57.7215 117.057 56.8723 116.645 56.2211C116.232 55.5701 115.693 55.0321 115.024 54.6075C114.357 54.1829 113.604 53.8502 112.765 53.6096C111.922 53.3676 111.077 53.134 110.229 52.9087C109.185 52.636 108.141 52.3672 107.095 52.1021C106.2 51.8755 105.369 51.6066 104.602 51.2952C103.863 50.9837 103.273 50.5379 102.833 49.9576C102.392 49.3772 102.172 48.5492 102.172 47.4733C102.172 47.2753 102.229 46.9213 102.342 46.4118C102.456 45.9021 102.726 45.3854 103.152 44.8617C103.579 44.3382 104.232 43.871 105.113 43.4604C105.994 43.05 107.202 42.8446 108.737 42.8446C109.788 42.8446 110.747 42.958 111.614 43.1844C112.481 43.4109 113.227 43.7718 113.852 44.2673C114.477 44.7628 114.961 45.3926 115.302 46.1569C115.643 46.9215 115.813 47.8557 115.813 48.9598V48.9598ZM135.551 48.9598H136.403C136.403 46.525 135.693 44.7556 134.272 43.6515C132.851 42.5474 130.918 41.9954 128.474 41.9954C127.11 41.9954 125.959 42.1654 125.021 42.5051C124.083 42.8446 123.316 43.2835 122.719 43.8213C122.122 44.3591 121.696 44.9537 121.44 45.6049C121.184 46.2561 121.057 46.879 121.057 47.4733C121.057 48.6623 121.27 49.6107 121.696 50.3185C122.122 51.0263 122.79 51.5783 123.7 51.9746C124.325 52.2575 125.035 52.5124 125.831 52.7393C126.627 52.9656 127.55 53.2062 128.602 53.4608C129.54 53.6876 130.464 53.914 131.373 54.1403C132.282 54.3669 133.085 54.6712 133.782 55.0532C134.478 55.4355 135.046 55.9239 135.487 56.5185C135.927 57.1129 136.147 57.8915 136.147 58.8539C136.147 59.7883 135.927 60.5809 135.487 61.2318C135.05 61.8796 134.475 62.4234 133.803 62.8245C133.121 63.2349 132.361 63.5321 131.522 63.7161C130.684 63.9001 129.867 63.9921 129.071 63.9921C126.485 63.9921 124.503 63.4189 123.124 62.2725C121.746 61.1258 121.057 59.3211 121.057 56.858H120.204C120.204 59.6042 120.95 61.6142 122.442 62.8883C123.934 64.1621 126.144 64.799 129.071 64.799C130.009 64.799 130.954 64.6928 131.906 64.4804C132.858 64.2681 133.71 63.9215 134.464 63.4401C135.21 62.9654 135.837 62.3262 136.297 61.5718C136.766 60.8072 137 59.8731 137 58.769C137 57.7215 136.794 56.8723 136.382 56.2211C135.97 55.5701 135.43 55.0321 134.762 54.6075C134.094 54.1829 133.341 53.8502 132.503 53.6096C131.66 53.3676 130.814 53.134 129.966 52.9087C128.923 52.636 127.878 52.3672 126.833 52.1021C125.938 51.8755 125.106 51.6066 124.339 51.2952C123.6 50.9837 123.01 50.5379 122.57 49.9576C122.129 49.3772 121.909 48.5492 121.909 47.4733C121.909 47.2753 121.966 46.9213 122.08 46.4118C122.193 45.9021 122.464 45.3854 122.89 44.8617C123.316 44.3382 123.97 43.871 124.851 43.4604C125.732 43.05 126.939 42.8446 128.474 42.8446C129.526 42.8446 130.485 42.958 131.352 43.1844C132.219 43.4109 132.964 43.7718 133.59 44.2673C134.215 44.7628 134.698 45.3926 135.039 46.1569C135.38 46.9215 135.551 47.8557 135.551 48.9598H135.551Z" fill="#7A7A7A"/>
</svg>
