<svg width="80" height="80" viewBox="0 0 80 80" fill="none" xmlns="http://www.w3.org/2000/svg">
<path d="M0 0H80V80H0V0Z" fill="#F0DB4F"/>
<path d="M73.4527 60.9202C72.8672 57.27 70.4869 54.2054 63.4375 51.346C60.9888 50.2206 58.2588 49.4146 57.4451 47.559C57.1561 46.4791 57.1181 45.8707 57.3006 45.2168C57.8253 43.0951 60.3577 42.4335 62.3653 43.0418C63.658 43.4753 64.8824 44.4716 65.62 46.0609C69.0725 43.8252 69.0649 43.8403 71.4755 42.3043C70.5934 40.9355 70.1219 40.3042 69.544 39.7187C67.4679 37.3993 64.639 36.2054 60.1143 36.2967C59.331 36.3955 58.5402 36.5019 57.7569 36.6009C55.4984 37.1712 53.3463 38.3575 52.0839 39.9469C48.2968 44.2434 49.3767 51.7643 53.985 54.8594C58.525 58.2663 65.1942 59.0419 66.0459 62.2282C66.8748 66.1294 63.179 67.3917 59.506 66.9431C56.7987 66.3803 55.2931 65.0039 53.6656 62.502C50.6695 64.2358 50.6695 64.2358 47.5897 66.0077C48.3197 67.6047 49.0877 68.3271 50.3121 69.7111C56.1068 75.5895 70.6086 75.3005 73.2095 66.4031C73.3158 66.0989 74.0155 64.0609 73.4527 60.9202ZM43.4907 36.7681H36.0078C36.0078 43.232 35.9775 49.6502 35.9775 56.1141C35.9775 60.2282 36.1904 64 35.5212 65.1559C34.4262 67.4296 31.5897 67.1483 30.2969 66.7072C28.9813 66.0608 28.3121 65.1406 27.5364 63.8403C27.3235 63.4677 27.1638 63.1787 27.1105 63.1559C25.0802 64.3955 23.0573 65.6425 21.0269 66.8822C22.0383 68.9582 23.5288 70.7605 25.4375 71.9315C28.2892 73.6425 32.1219 74.1673 36.1296 73.2471C38.738 72.4866 40.9888 70.9126 42.1675 68.5171C43.871 65.3765 43.506 61.5742 43.4907 57.3689C43.5288 50.5095 43.4907 43.6502 43.4907 36.7681Z" fill="#323330"/>
</svg>
