<svg width="112" height="69" viewBox="0 0 112 69" fill="none" xmlns="http://www.w3.org/2000/svg">
<g clip-path="url(#clip0_2633_287)">
<path d="M55.3681 68.4802C54.9891 68.4802 54.6352 68.3792 54.3065 68.2022L50.9445 66.2053C50.4388 65.9271 50.6917 65.826 50.8435 65.7755C51.5259 65.548 51.6523 65.4973 52.3601 65.0931C52.436 65.0424 52.5372 65.0677 52.6129 65.1183L55.1914 66.6602C55.2925 66.7108 55.4189 66.7108 55.4946 66.6602L65.5809 60.8208C65.6819 60.7703 65.7327 60.669 65.7327 60.5428V48.8894C65.7327 48.7627 65.6819 48.6619 65.5809 48.6112L55.4946 42.7971C55.3935 42.7464 55.2671 42.7464 55.1914 42.7971L45.1051 48.6112C45.004 48.6617 44.9533 48.7881 44.9533 48.8892V60.5426C44.9533 60.6439 45.004 60.7701 45.1051 60.8208L47.8605 62.4133C49.352 63.1716 50.2872 62.2869 50.2872 61.4022V49.9003C50.2872 49.7487 50.4137 49.5969 50.5906 49.5969H51.8798C52.0315 49.5969 52.1831 49.7234 52.1831 49.9003V61.4022C52.1831 63.3991 51.0961 64.562 49.2002 64.562C48.6188 64.562 48.1639 64.5621 46.8745 63.9299L44.2204 62.4133C43.5631 62.0343 43.1587 61.3263 43.1587 60.568V48.9145C43.1587 48.1562 43.5631 47.4482 44.2204 47.0692L54.3065 41.2298C54.9386 40.8759 55.7981 40.8759 56.43 41.2298L66.5161 47.0692C67.1734 47.4482 67.578 48.1562 67.578 48.9145V60.568C67.578 61.3263 67.1734 62.0343 66.5161 62.4133L56.43 68.2527C56.1013 68.4045 55.7222 68.4802 55.3684 68.4802H55.3681ZM58.4775 60.4669C54.0538 60.4669 53.1437 58.4446 53.1437 56.7257C53.1437 56.5739 53.2702 56.4223 53.4471 56.4223H54.7616C54.9132 56.4223 55.0396 56.5234 55.0396 56.6752C55.2419 58.0149 55.8233 58.6721 58.5028 58.6721C60.6262 58.6721 61.5365 58.1918 61.5365 57.0542C61.5365 56.397 61.2834 55.9169 57.972 55.5881C55.2166 55.3099 53.4976 54.7034 53.4976 52.5042C53.4976 50.4565 55.2168 49.2431 58.0984 49.2431C61.334 49.2431 62.9267 50.3555 63.129 52.782C63.129 52.8581 63.1036 52.9338 63.0531 53.0096C63.0024 53.0602 62.9267 53.1107 62.8508 53.1107H61.5363C61.4099 53.1107 61.2834 53.0096 61.2583 52.8832C60.9549 51.493 60.1712 51.0379 58.0984 51.0379C55.7728 51.0379 55.4946 51.8469 55.4946 52.4534C55.4946 53.1866 55.8233 53.4141 58.9578 53.8185C62.0671 54.2231 63.5334 54.8045 63.5334 56.9783C63.508 59.2029 61.6881 60.4669 58.4775 60.4669Z" fill="#539E43"/>
<path d="M24.073 22.9027C24.073 22.4478 23.8202 22.0178 23.4158 21.7903L12.6976 15.6224C12.5204 15.5211 12.3183 15.4706 12.1162 15.4452H12.0149C11.8128 15.4452 11.6105 15.5211 11.4336 15.6224L0.715362 21.7903C0.310728 22.0178 0.0581055 22.4475 0.0581055 22.9027L0.0834771 39.4855C0.0834771 39.7129 0.209898 39.9404 0.411996 40.0417C0.614313 40.1681 0.866936 40.1681 1.0441 40.0417L7.41435 36.4015C7.81876 36.174 8.07161 35.7442 8.07161 35.2893V27.5286C8.07161 27.0737 8.32423 26.6439 8.72886 26.4165L11.4336 24.8491C11.6359 24.7227 11.8634 24.6719 12.0908 24.6719C12.3183 24.6719 12.5458 24.7227 12.7229 24.8491L15.4276 26.4165C15.8323 26.6439 16.0849 27.0735 16.0849 27.5286V35.2893C16.0849 35.7442 16.3377 36.174 16.7421 36.4015L23.1124 40.0417C23.3147 40.1681 23.5673 40.1681 23.7696 40.0417C23.972 39.9404 24.0984 39.7129 24.0984 39.4855L24.073 22.9027ZM75.5912 0.0758898C75.3891 -0.025378 75.1363 -0.025378 74.9591 0.0758898C74.757 0.20231 74.6306 0.404409 74.6306 0.631878V17.0633C74.6306 17.2149 74.5549 17.3664 74.4031 17.4677C74.2516 17.5434 74.0998 17.5434 73.9482 17.4677L71.2686 15.9257C71.0722 15.8139 70.85 15.755 70.624 15.755C70.3979 15.755 70.1757 15.8139 69.9793 15.9257L59.2611 22.119C58.8567 22.3465 58.6038 22.7763 58.6038 23.2312V35.5924C58.6038 36.0474 58.8567 36.4774 59.2611 36.7049L69.9793 42.8982C70.1757 43.01 70.3979 43.0688 70.624 43.0688C70.85 43.0688 71.0722 43.01 71.2686 42.8982L81.9868 36.7049C82.3913 36.4774 82.6441 36.0476 82.6441 35.5924V4.77773C82.6441 4.29742 82.3913 3.86785 81.9868 3.64017L75.5914 0.0758898H75.5912ZM74.6054 31.5227C74.6054 31.6491 74.5549 31.7502 74.4537 31.8007L70.7883 33.924C70.7371 33.949 70.6809 33.962 70.624 33.962C70.567 33.962 70.5108 33.949 70.4596 33.924L66.7943 31.8007C66.693 31.7502 66.6425 31.6238 66.6425 31.5227V27.2758C66.6425 27.1494 66.693 27.0483 66.7943 26.9978L70.4596 24.8742C70.5108 24.8493 70.567 24.8363 70.624 24.8363C70.6809 24.8363 70.7371 24.8493 70.7883 24.8742L74.4537 26.9978C74.5549 27.0481 74.6054 27.1748 74.6054 27.2758V31.5227ZM111.26 27.1748C111.664 26.9473 111.892 26.5175 111.892 26.0623V23.0543C111.892 22.5993 111.639 22.1695 111.26 21.9421L100.617 15.7741C100.421 15.6623 100.199 15.6035 99.9727 15.6035C99.7467 15.6035 99.5246 15.6623 99.3281 15.7741L88.6099 21.9672C88.2053 22.1947 87.9527 22.6245 87.9527 23.0796V35.4409C87.9527 35.8958 88.2053 36.3256 88.6099 36.5531L99.2522 42.6199C99.6569 42.8474 100.137 42.8474 100.516 42.6199L106.962 39.0307C107.164 38.9295 107.291 38.702 107.291 38.4745C107.291 38.2471 107.164 38.0196 106.962 37.9183L96.1934 31.725C95.9913 31.5988 95.8649 31.3965 95.8649 31.169V27.3014C95.8649 27.0739 95.9913 26.8465 96.1934 26.7452L99.5556 24.8239C99.654 24.762 99.7679 24.7291 99.8842 24.7291C100.001 24.7291 100.114 24.762 100.213 24.8239L103.575 26.7452C103.777 26.8716 103.904 27.0737 103.904 27.3014V30.3348C103.904 30.5623 104.03 30.7898 104.232 30.8908C104.434 31.0172 104.687 31.0172 104.889 30.8908L111.26 27.1748Z" fill="#333333"/>
<path d="M99.8084 26.5934C99.8459 26.5687 99.8898 26.5555 99.9347 26.5555C99.9796 26.5555 100.023 26.5687 100.061 26.5934L102.109 27.7815C102.185 27.8318 102.235 27.9077 102.235 28.009V30.3851C102.235 30.4862 102.185 30.5621 102.109 30.6126L100.061 31.8007C100.023 31.8254 99.9796 31.8386 99.9347 31.8386C99.8898 31.8386 99.8459 31.8254 99.8084 31.8007L97.7607 30.6126C97.6848 30.5621 97.6343 30.4862 97.6343 30.3851V28.009C97.6343 27.9077 97.6848 27.8318 97.7607 27.7815L99.8084 26.5934Z" fill="#539E43"/>
<mask id="mask0_2633_287" style="mask-type:alpha" maskUnits="userSpaceOnUse" x="29" y="15" width="25" height="28">
<path d="M41.9957 15.8247C41.7993 15.7128 41.5771 15.6541 41.3511 15.6541C41.1251 15.6541 40.903 15.7128 40.7065 15.8247L30.0642 21.967C29.6596 22.1945 29.4321 22.6243 29.4321 23.0792V35.3901C29.4321 35.8451 29.685 36.2748 30.0642 36.5023L40.7065 42.6451C40.903 42.7569 41.1251 42.8157 41.3511 42.8157C41.5771 42.8157 41.7993 42.7569 41.9957 42.6451L52.6382 36.5023C53.0426 36.2748 53.2703 35.8451 53.2703 35.3901V23.0794C53.2703 22.6245 53.0173 22.1947 52.6382 21.9672L41.9957 15.8247Z" fill="white"/>
</mask>
<g mask="url(#mask0_2633_287)">
<path d="M41.9957 15.8247C41.7993 15.7128 41.5771 15.6541 41.3511 15.6541C41.1251 15.6541 40.903 15.7128 40.7065 15.8247L30.0642 21.967C29.6596 22.1945 29.4321 22.6243 29.4321 23.0792V35.3901C29.4321 35.8451 29.685 36.2748 30.0642 36.5023L40.7065 42.6451C40.903 42.7569 41.1251 42.8157 41.3511 42.8157C41.5771 42.8157 41.7993 42.7569 41.9957 42.6451L52.6382 36.5023C53.0426 36.2748 53.2703 35.8451 53.2703 35.3901V23.0794C53.2703 22.6245 53.0173 22.1947 52.6382 21.9672L41.9957 15.8247Z" fill="url(#paint0_linear_2633_287)"/>
<path d="M52.6634 21.9672L41.9706 15.8247C41.8655 15.7716 41.7554 15.7293 41.6419 15.6982L29.6597 36.2248C29.7589 36.3459 29.8788 36.4486 30.0138 36.5281L40.7066 42.6709C41.01 42.8479 41.3639 42.8984 41.6924 42.7971L52.9416 22.2203C52.8657 22.1192 52.7645 22.0431 52.6634 21.9674V21.9672Z" fill="url(#paint1_linear_2633_287)"/>
<path fill-rule="evenodd" clip-rule="evenodd" d="M52.6887 36.5026C52.9921 36.3256 53.2195 36.0223 53.3208 35.6937L41.591 15.6729C41.2876 15.6224 40.9589 15.6475 40.6811 15.8245L30.064 21.9421L41.5151 42.8223C41.6816 42.795 41.8434 42.744 41.9954 42.6707L52.6885 36.5028L52.6887 36.5026Z" fill="url(#paint2_linear_2633_287)"/>
<path fill-rule="evenodd" clip-rule="evenodd" d="M52.6885 36.5025L42.0208 42.6453C41.8702 42.7221 41.7079 42.7733 41.5405 42.7969L41.7428 43.1761L53.5732 36.3258V36.174L53.2699 35.6683C53.2194 36.0222 52.9919 36.3256 52.6885 36.5025Z" fill="url(#paint3_linear_2633_287)"/>
<path fill-rule="evenodd" clip-rule="evenodd" d="M52.6885 36.5025L42.0208 42.6453C41.8702 42.7221 41.7079 42.7733 41.5405 42.7969L41.7428 43.1761L53.5732 36.3258V36.174L53.2699 35.6683C53.2194 36.0222 52.9919 36.3256 52.6885 36.5025Z" fill="url(#paint4_linear_2633_287)"/>
</g>
</g>
<defs>
<linearGradient id="paint0_linear_2633_287" x1="45.6869" y1="20.4038" x2="34.0219" y2="38.733" gradientUnits="userSpaceOnUse">
<stop stop-color="#41873F"/>
<stop offset="0.3288" stop-color="#418B3D"/>
<stop offset="0.6352" stop-color="#419637"/>
<stop offset="0.9319" stop-color="#3FA92D"/>
<stop offset="1" stop-color="#3FAE2A"/>
</linearGradient>
<linearGradient id="paint1_linear_2633_287" x1="39.7354" y1="30.6769" x2="68.9498" y2="14.8046" gradientUnits="userSpaceOnUse">
<stop offset="0.1376" stop-color="#41873F"/>
<stop offset="0.4032" stop-color="#54A044"/>
<stop offset="0.7136" stop-color="#66B848"/>
<stop offset="0.9081" stop-color="#6CC04A"/>
</linearGradient>
<linearGradient id="paint2_linear_2633_287" x1="29.0432" y1="29.2353" x2="53.6694" y2="29.2353" gradientUnits="userSpaceOnUse">
<stop offset="0.09192" stop-color="#6CC04A"/>
<stop offset="0.2864" stop-color="#66B848"/>
<stop offset="0.5968" stop-color="#54A044"/>
<stop offset="0.8624" stop-color="#41873F"/>
</linearGradient>
<linearGradient id="paint3_linear_2633_287" x1="29.0432" y1="39.4429" x2="53.6691" y2="39.4429" gradientUnits="userSpaceOnUse">
<stop offset="0.09192" stop-color="#6CC04A"/>
<stop offset="0.2864" stop-color="#66B848"/>
<stop offset="0.5968" stop-color="#54A044"/>
<stop offset="0.8624" stop-color="#41873F"/>
</linearGradient>
<linearGradient id="paint4_linear_2633_287" x1="57.2568" y1="19.8217" x2="51.0181" y2="52.5123" gradientUnits="userSpaceOnUse">
<stop stop-color="#41873F"/>
<stop offset="0.3288" stop-color="#418B3D"/>
<stop offset="0.6352" stop-color="#419637"/>
<stop offset="0.9319" stop-color="#3FA92D"/>
<stop offset="1" stop-color="#3FAE2A"/>
</linearGradient>
<clipPath id="clip0_2633_287">
<rect width="112" height="68.6784" fill="white"/>
</clipPath>
</defs>
</svg>
