<svg id="Layer_1" data-name="Layer 1" xmlns="http://www.w3.org/2000/svg" viewBox="0 0 500 500" fill="#ffffff"><defs><style>.cls-1{fill:#fff}</style></defs><path class="cls-1" d="M105,368.4a21.11,21.11,0,0,1-8.44-7.88,23,23,0,0,1,0-22.87,21.11,21.11,0,0,1,8.44-7.88,27.54,27.54,0,0,1,24.36,0,21.2,21.2,0,0,1,8.4,7.88,23,23,0,0,1,0,22.87,21.2,21.2,0,0,1-8.4,7.88,27.54,27.54,0,0,1-24.36,0Zm20.08-10.64a13.76,13.76,0,0,0,0-17.35,10.39,10.39,0,0,0-7.88-3.24,10.52,10.52,0,0,0-7.92,3.24,13.62,13.62,0,0,0,0,17.35A10.52,10.52,0,0,0,117.2,361,10.39,10.39,0,0,0,125.08,357.76Z"/><path class="cls-1" d="M217,327.57l-15.6,43h-12l-9.68-26.71-10,26.71h-12l-15.52-43H154l10.16,29.11,10.56-29.11h10.55l10.24,29.11L206,327.57Z"/><path class="cls-1" d="M261.94,331.73q4.92,4.8,4.92,14.23V370.6H254.38V347.88c0-3.41-.74-5.95-2.24-7.63a8.2,8.2,0,0,0-6.47-2.52,9.9,9.9,0,0,0-7.52,2.92q-2.81,2.91-2.8,8.67V370.6H222.87v-43h11.92v5a16.32,16.32,0,0,1,6.16-4.2,21.36,21.36,0,0,1,8.08-1.48Q257,326.93,261.94,331.73Z"/><path class="cls-1" d="M295.9,349.48,286,358.6v12H280.3V311.25H286v40.23l25.12-23h7l-18,17.19,19.68,24.88h-7Z"/><path class="cls-1" d="M363.33,351.32h-35.2a15,15,0,0,0,5,10.6,16.7,16.7,0,0,0,11.52,4,18.06,18.06,0,0,0,7.2-1.4,15.58,15.58,0,0,0,5.68-4.12l3.2,3.68a18,18,0,0,1-7,5.12,25.2,25.2,0,0,1-20.72-1,19.9,19.9,0,0,1-7.8-7.64,21.83,21.83,0,0,1-2.79-11,22.59,22.59,0,0,1,2.67-11,19.36,19.36,0,0,1,7.36-7.6A20.49,20.49,0,0,1,343,328.21a20.27,20.27,0,0,1,10.48,2.72,19.26,19.26,0,0,1,7.28,7.56,22.71,22.71,0,0,1,2.64,11.07ZM332.81,337a15.28,15.28,0,0,0-4.68,10.11H358A15.19,15.19,0,0,0,353.29,337a15.45,15.45,0,0,0-20.48,0Z"/><path class="cls-1" d="M409.56,328.53l-21,47.11q-2.56,5.92-5.92,8.4a13.26,13.26,0,0,1-8.08,2.48,16.48,16.48,0,0,1-5.68-1,12.31,12.31,0,0,1-4.56-2.88l2.64-4.24a10.48,10.48,0,0,0,7.68,3.2,7.71,7.71,0,0,0,4.92-1.6,14.63,14.63,0,0,0,3.8-5.44l1.84-4.08-18.8-42h5.92l15.84,35.75L404,328.53Z"/><path class="cls-1" d="M331.25,267.91H168.75a1.88,1.88,0,0,1-1.89-1.88V183.87a1.88,1.88,0,0,1,.55-1.33l81.26-81.26a1.88,1.88,0,0,1,2.66,0l81.26,81.26a1.88,1.88,0,0,1,.55,1.33V266A1.88,1.88,0,0,1,331.25,267.91Zm-160.62-3.77H329.37V184.65L250,105.28l-79.37,79.37Z"/><path class="cls-1" d="M236.27,189.21a23.24,23.24,0,0,1,8.87,8.73,25.9,25.9,0,0,1,0,25.23,23.56,23.56,0,0,1-8.9,8.77,25.62,25.62,0,0,1-24.69,0,23.88,23.88,0,0,1-8.94-8.77,25.76,25.76,0,0,1,0-25.23,23.56,23.56,0,0,1,8.94-8.73,25.9,25.9,0,0,1,24.72,0ZM217,202.76a13.61,13.61,0,0,0,0,15.52,8.61,8.61,0,0,0,7,2.86,8.52,8.52,0,0,0,6.88-2.86,13.61,13.61,0,0,0,0-15.52,8.52,8.52,0,0,0-6.88-2.86A8.61,8.61,0,0,0,217,202.76Z"/><path class="cls-1" d="M283,210.08l17.67,24.55h-18l-13.89-20.7v20.7h-15V186.88h15v20.17l14-20.17h17.87Z"/></svg>