<svg width="79" height="90" viewBox="0 0 79 90" fill="none" xmlns="http://www.w3.org/2000/svg">
<path d="M79 45.008C79 39.7757 72.4462 34.8171 62.3981 31.7421C64.7169 21.5028 63.6863 13.3565 59.1453 10.7484C58.0987 10.1366 56.8748 9.84679 55.5383 9.84679V13.437C56.279 13.437 56.8749 13.5819 57.374 13.8556C59.564 15.1113 60.5141 19.8929 59.7733 26.0429C59.5962 27.5562 59.3064 29.1501 58.9521 30.7761C55.796 30.0033 52.35 29.4076 48.7269 29.0213C46.553 26.0429 44.2986 23.3381 42.0281 20.9715C47.2776 16.0934 52.2051 13.4209 55.5544 13.4209V9.83069C51.1262 9.83069 45.3292 12.9862 39.4678 18.46C33.6064 13.0184 27.8094 9.89509 23.3812 9.89509V13.4853C26.7144 13.4853 31.658 16.1417 36.9075 20.9876C34.6531 23.3542 32.3987 26.0429 30.257 29.0213C26.6178 29.4076 23.1718 30.0033 20.0157 30.7922C19.6453 29.1823 19.3716 27.6206 19.1784 26.1234C18.4215 19.9734 19.3555 15.1918 21.5294 13.92C22.0124 13.6302 22.6404 13.5014 23.3812 13.5014V9.91119C22.0285 9.91119 20.8047 10.201 19.7419 10.8128C15.2171 13.4209 14.2026 21.5511 16.5375 31.7582C6.52161 34.8493 0 39.7918 0 45.008C0 50.2404 6.55381 55.199 16.6019 58.274C14.2831 68.5133 15.3137 76.6596 19.8547 79.2677C20.9013 79.8795 22.1252 80.1693 23.4778 80.1693C27.906 80.1693 33.703 77.0138 39.5644 71.54C45.4258 76.9816 51.2228 80.1049 55.651 80.1049C57.0037 80.1049 58.2275 79.8151 59.2903 79.2033C63.8151 76.5952 64.8296 68.465 62.4947 58.2579C72.4784 55.1829 79 50.2243 79 45.008ZM58.0342 34.2697C57.4384 36.3465 56.6977 38.4877 55.8604 40.629C55.2002 39.341 54.5077 38.0531 53.7509 36.7651C53.0102 35.4771 52.2212 34.2214 51.4321 32.9978C53.7187 33.3359 55.9248 33.7545 58.0342 34.2697ZM50.6592 51.4156C49.4032 53.589 48.115 55.6498 46.7784 57.5656C44.3791 57.7749 41.9476 57.8876 39.5 57.8876C37.0685 57.8876 34.637 57.7749 32.2538 57.5817C30.9172 55.6659 29.6129 53.6212 28.3569 51.4639C27.1331 49.3549 26.022 47.2137 25.0075 45.0563C26.0059 42.899 27.1331 40.7417 28.3408 38.6326C29.5968 36.4592 30.885 34.3985 32.2216 32.4826C34.6209 32.2733 37.0524 32.1607 39.5 32.1607C41.9315 32.1607 44.363 32.2733 46.7462 32.4665C48.0828 34.3824 49.3871 36.427 50.6431 38.5843C51.8669 40.6934 52.978 42.8346 53.9925 44.9919C52.978 47.1493 51.8669 49.3066 50.6592 51.4156ZM55.8604 49.3227C56.7299 51.48 57.4707 53.6373 58.0826 55.7303C55.9731 56.2455 53.7509 56.6801 51.4482 57.0182C52.2373 55.7786 53.0263 54.5067 53.767 53.2027C54.5078 51.9147 55.2002 50.6106 55.8604 49.3227ZM39.5322 66.5008C38.0347 64.9553 36.5371 63.2326 35.0556 61.349C36.5049 61.4134 37.9863 61.4617 39.4839 61.4617C40.9976 61.4617 42.4951 61.4295 43.9605 61.349C42.5112 63.2326 41.0137 64.9553 39.5322 66.5008ZM27.5518 57.0182C25.2652 56.6801 23.0591 56.2616 20.9497 55.7464C21.5455 53.6695 22.2862 51.5283 23.1235 49.3871C23.7837 50.675 24.4762 51.963 25.233 53.251C25.9898 54.5389 26.7627 55.7947 27.5518 57.0182ZM39.4517 23.5152C40.9493 25.0608 42.4468 26.7834 43.9283 28.6671C42.479 28.6027 40.9976 28.5544 39.5 28.5544C37.9863 28.5544 36.4888 28.5866 35.0234 28.6671C36.4727 26.7834 37.9702 25.0608 39.4517 23.5152ZM27.5357 32.9978C26.7466 34.2375 25.9576 35.5093 25.2169 36.8134C24.4762 38.1014 23.7837 39.3893 23.1235 40.6773C22.254 38.5199 21.5133 36.3626 20.9013 34.2697C23.0108 33.7706 25.233 33.3359 27.5357 32.9978ZM12.9627 53.1544C7.26233 50.7233 3.57481 47.5356 3.57481 45.008C3.57481 42.4804 7.26233 39.2766 12.9627 36.8617C14.3475 36.266 15.8612 35.7347 17.4232 35.2357C18.341 38.3911 19.5487 41.6754 21.0463 45.0402C19.5648 48.3889 18.3732 51.6571 17.4715 54.7965C15.8773 54.2974 14.3636 53.75 12.9627 53.1544ZM21.626 76.1605C19.436 74.9047 18.4859 70.1232 19.2267 63.9732C19.4038 62.4599 19.6936 60.866 20.0479 59.24C23.204 60.0127 26.65 60.6084 30.2731 60.9948C32.447 63.9732 34.7014 66.6779 36.9719 69.0445C31.7224 73.9227 26.7949 76.5952 23.4456 76.5952C22.721 76.5791 22.1091 76.4342 21.626 76.1605ZM59.8217 63.8927C60.5785 70.0427 59.6445 74.8242 57.4706 76.0961C56.9876 76.3859 56.3596 76.5147 55.6188 76.5147C52.2856 76.5147 47.342 73.8583 42.0925 69.0123C44.3469 66.6457 46.6013 63.9571 48.743 60.9787C52.3822 60.5923 55.8282 59.9966 58.9843 59.2078C59.3547 60.8338 59.6445 62.3955 59.8217 63.8927ZM66.0212 53.1544C64.6364 53.75 63.1227 54.2813 61.5607 54.7804C60.6429 51.6249 59.4352 48.3406 57.9376 44.9758C59.4191 41.6271 60.6107 38.3589 61.5124 35.2196C63.1066 35.7186 64.6203 36.266 66.0373 36.8617C71.7377 39.2927 75.4252 42.4804 75.4252 45.008C75.4091 47.5356 71.7216 50.7394 66.0212 53.1544Z" fill="#61DAFB"/>
<path d="M39.4839 52.3655C43.5482 52.3655 46.8429 49.0714 46.8429 45.008C46.8429 40.9446 43.5482 37.6506 39.4839 37.6506C35.4197 37.6506 32.125 40.9446 32.125 45.008C32.125 49.0714 35.4197 52.3655 39.4839 52.3655Z" fill="#61DAFB"/>
</svg>
