<svg width="84" height="63" viewBox="0 0 84 63" fill="none" xmlns="http://www.w3.org/2000/svg">
<g clip-path="url(#clip0_2633_285)">
<path d="M72.2859 36.1922C69.3492 36.2088 66.8062 36.9141 64.6734 37.9642C63.8859 36.4056 63.0984 35.0438 62.9673 34.0267C62.8196 32.8455 62.6392 32.1235 62.8196 30.7127C62.9999 29.3016 63.8202 27.3 63.8202 27.136C63.8037 26.9883 63.6396 26.2664 61.9499 26.25C60.2603 26.2336 58.7999 26.5781 58.6359 27.0211C58.4718 27.4641 58.1437 28.4813 57.9304 29.5313C57.6351 31.0735 54.5507 36.5367 52.7952 39.4078C52.221 38.2922 51.7288 37.3078 51.6302 36.5202C51.4827 35.3391 51.3021 34.617 51.4827 33.2063C51.6632 31.7952 52.4835 29.7938 52.4835 29.6297C52.4671 29.482 52.3031 28.7602 50.6134 28.7438C48.9234 28.7274 47.4634 29.0719 47.2993 29.5149C47.1353 29.9578 46.9548 31.0078 46.5938 32.025C46.2492 33.0422 42.1476 42.1641 41.0812 44.543C40.5398 45.757 40.0642 46.725 39.7195 47.3813C39.3749 48.0375 39.7031 47.4305 39.6702 47.4961C39.3749 48.0539 39.2109 48.3656 39.2109 48.3656V48.3822C38.9812 48.7924 38.7351 49.186 38.6201 49.186C38.5381 49.186 38.374 48.0867 38.6529 46.5775C39.2599 43.411 40.7365 38.4728 40.7202 38.2924C40.7202 38.2103 40.999 37.3406 39.7685 36.8978C38.5709 36.4549 38.1445 37.1931 38.0459 37.1931C37.9474 37.1931 37.8654 37.4556 37.8654 37.4556C37.8654 37.4556 39.1943 31.8941 35.3224 31.8941C32.8943 31.8941 29.5474 34.5355 27.8904 36.9472C26.8404 37.5214 24.6091 38.7353 22.2466 40.0316C21.3443 40.5238 20.4091 41.0488 19.5232 41.5246L19.3429 41.3274C14.6507 36.3235 5.97181 32.7797 6.33275 26.0531C6.464 23.6086 7.31712 17.161 23.0017 9.35158C35.8478 2.95314 46.1345 4.70861 47.9226 8.6133C50.4656 14.1914 42.4265 24.5602 29.072 26.0531C23.986 26.6274 21.3117 24.6586 20.6392 23.9203C19.9337 23.1492 19.8353 23.1164 19.5728 23.2641C19.1462 23.4938 19.4087 24.1828 19.5728 24.593C19.9665 25.6266 21.6071 27.4641 24.3962 28.3828C26.8406 29.1867 32.8126 29.6297 40.0313 26.8406C48.1196 23.707 54.436 15.0117 52.5821 7.74376C50.6954 0.344547 38.4235 -2.08358 26.8243 2.03439C19.9171 4.49533 12.4359 8.33439 7.05462 13.3711C0.656183 19.343 -0.361004 24.5602 0.0655583 26.7258C1.55869 34.4531 12.2062 39.4899 16.4718 43.2141C16.2585 43.3288 16.0617 43.4436 15.8812 43.5422C13.7484 44.592 5.62728 48.8414 3.5929 53.3366C1.29603 58.4225 3.95384 62.0813 5.72571 62.5735C11.2054 64.0992 16.8163 61.3594 19.8515 56.8477C22.8701 52.336 22.5093 46.4789 21.1148 43.8047L21.0654 43.7063L22.7388 42.7219C23.8218 42.082 24.8882 41.4914 25.8232 40.9827C25.2984 42.41 24.9209 44.0999 24.7242 46.5608C24.4945 49.4485 25.6757 53.1889 27.2343 54.6655C27.9234 55.3052 28.7437 55.3217 29.2523 55.3217C31.057 55.3217 31.8773 53.8286 32.7796 52.0405C33.8952 49.8584 34.8796 47.3319 34.8796 47.3319C34.8796 47.3319 33.6492 54.1733 37.0124 54.1733C38.2429 54.1733 39.4734 52.5819 40.0312 51.7616V51.778C40.0312 51.778 40.064 51.7288 40.1296 51.6139C40.1985 51.5121 40.2641 51.4082 40.3265 51.3024V51.2695C40.8187 50.4164 41.9179 48.4641 43.5585 45.232C45.6748 41.0649 47.7093 35.8477 47.7093 35.8477C47.7093 35.8477 47.9062 37.1274 48.5132 39.2274C48.874 40.4744 49.6615 41.836 50.2685 43.1649C49.7763 43.8539 49.481 44.2478 49.481 44.2478L49.4974 44.2642C49.1038 44.7892 48.6607 45.3472 48.2015 45.9049C46.5281 47.9064 44.5265 50.1871 44.264 50.8433C43.9523 51.6142 44.0179 52.1885 44.6249 52.648C45.0679 52.9761 45.8554 53.0416 46.6921 52.9761C48.2015 52.8775 49.2515 52.5003 49.7765 52.2705C50.5968 51.9752 51.532 51.5322 52.4343 50.876C54.0749 49.6621 55.0757 47.9394 54.9773 45.6425C54.9281 44.3792 54.5179 43.1324 54.0093 41.9511C54.157 41.7378 54.3048 41.5244 54.4523 41.2949C57.0445 37.5049 59.046 33.3378 59.046 33.3378C59.046 33.3378 59.2429 34.6175 59.8499 36.7175C60.1615 37.7839 60.7851 38.9489 61.3429 40.0974C58.9148 42.0825 57.389 44.3794 56.864 45.8888C55.896 48.6779 56.6507 49.9411 58.0781 50.2364C58.7177 50.3677 59.6367 50.0724 60.3256 49.7771C61.1787 49.4982 62.2123 49.0222 63.164 48.3169C64.8046 47.1029 66.3796 45.413 66.2976 43.1325C66.2484 42.0825 65.9695 41.0489 65.5921 40.0646C67.6593 39.2114 70.3334 38.7193 73.7296 39.1294C81.0304 39.9825 82.4742 44.5435 82.1954 46.4466C81.9165 48.3499 80.3907 49.3997 79.882 49.7279C79.3734 50.0396 79.2093 50.1546 79.2585 50.3841C79.3242 50.7288 79.5538 50.7122 79.9968 50.6468C80.6038 50.5482 83.8359 49.0882 83.9671 45.5774C84.164 41.065 79.882 36.1431 72.2859 36.1922ZM15.9796 55.1742C13.5679 57.8156 10.1718 58.8164 8.72806 57.9633C7.16946 57.061 7.77633 53.1727 10.746 50.3672C12.5507 48.661 14.8968 47.086 16.439 46.118C16.7835 45.9047 17.3085 45.5932 17.932 45.2156C18.0304 45.1502 18.096 45.1172 18.096 45.1172C18.2109 45.0516 18.3421 44.9695 18.4734 44.8875C19.5726 48.8906 18.5226 52.4016 15.9796 55.1742ZM33.6163 43.1813C32.7796 45.232 31.0077 50.4985 29.9413 50.2031C29.0224 49.957 28.4648 45.9703 29.7607 42.0328C30.417 40.0475 31.8115 37.6852 32.6318 36.7663C33.9609 35.2897 35.4045 34.7975 35.7656 35.4045C36.1921 36.1922 34.1413 41.9016 33.6163 43.1813ZM48.1687 50.1375C47.8077 50.3181 47.4796 50.4492 47.332 50.351C47.2171 50.2853 47.4795 50.0392 47.4795 50.0392C47.4795 50.0392 49.3005 48.0869 50.0224 47.1846C50.4326 46.6597 50.9248 46.0527 51.4498 45.3635V45.5603C51.4499 47.9227 49.1859 49.4977 48.1687 50.1375ZM59.3904 47.5781C59.1279 47.3813 59.1609 46.7742 60.0466 44.8711C60.3913 44.1164 61.1787 42.8531 62.5404 41.6555C62.7045 42.1477 62.8031 42.6233 62.7865 43.0664C62.7702 46.0195 60.6702 47.1188 59.3904 47.5781Z" fill="#CF649A"/>
</g>
<defs>
<clipPath id="clip0_2633_285">
<rect width="84" height="63" fill="white"/>
</clipPath>
</defs>
</svg>
